<?xml version="1.0" encoding="UTF-8" standalone="no"?><svg xmlns="http://www.w3.org/2000/svg" xmlns:xlink="http://www.w3.org/1999/xlink" contentScriptType="application/ecmascript" contentStyleType="text/css" height="545px" preserveAspectRatio="none" style="width:1673px;height:545px;" version="1.1" viewBox="0 0 1673 545" width="1673px" zoomAndPan="magnify"><defs><filter height="300%" id="fwowtys36i46n" width="300%" x="-1" y="-1"><feGaussianBlur result="blurOut" stdDeviation="2.0"/><feColorMatrix in="blurOut" result="blurOut2" type="matrix" values="0 0 0 0 0 0 0 0 0 0 0 0 0 0 0 0 0 0 .4 0"/><feOffset dx="4.0" dy="4.0" in="blurOut2" result="blurOut3"/><feBlend in="SourceGraphic" in2="blurOut3" mode="normal"/></filter></defs><g><!--MD5=[2528c445acb2e7484cdafa2c29c49eca]
cluster nitrogenhotel.db.entries--><polygon fill="#FFFFFF" filter="url(#fwowtys36i46n)" points="16,6,215,6,222,28.2969,1651,28.2969,1651,517,16,517,16,6" style="stroke: #000000; stroke-width: 1.5;"/><line style="stroke: #000000; stroke-width: 1.5;" x1="16" x2="222" y1="28.2969" y2="28.2969"/><text fill="#000000" font-family="sans-serif" font-size="14" font-weight="bold" lengthAdjust="spacingAndGlyphs" textLength="193" x="20" y="20.9951">nitrogenhotel.db.entries</text><!--MD5=[e8163e82cfefbfd28cebb8eb6e8223b1]
class nitrogenhotel.db.entries.Customer--><a href="Customer.html" target="_top" title="Customer.html" xlink:actuate="onRequest" xlink:href="Customer.html" xlink:show="new" xlink:title="Customer.html" xlink:type="simple"><rect codeLine="3" fill="#FEFECE" filter="url(#fwowtys36i46n)" height="186.467" id="nitrogenhotel.db.entries.Customer" style="stroke: #A80036; stroke-width: 1.5;" width="296" x="659" y="291.5"/><ellipse cx="778.75" cy="307.5" fill="#ADD1B2" rx="11" ry="11" style="stroke: #A80036; stroke-width: 1.0;"/><path d="M781.7188,313.1406 Q781.1406,313.4375 780.5,313.5781 Q779.8594,313.7344 779.1563,313.7344 Q776.6563,313.7344 775.3281,312.0938 Q774.0156,310.4375 774.0156,307.3125 Q774.0156,304.1875 775.3281,302.5313 Q776.6563,300.875 779.1563,300.875 Q779.8594,300.875 780.5,301.0313 Q781.1563,301.1875 781.7188,301.4844 L781.7188,304.2031 Q781.0938,303.625 780.5,303.3594 Q779.9063,303.0781 779.2813,303.0781 Q777.9375,303.0781 777.25,304.1563 Q776.5625,305.2188 776.5625,307.3125 Q776.5625,309.4063 777.25,310.4844 Q777.9375,311.5469 779.2813,311.5469 Q779.9063,311.5469 780.5,311.2813 Q781.0938,311 781.7188,310.4219 L781.7188,313.1406 Z "/><text fill="#000000" font-family="sans-serif" font-size="12" lengthAdjust="spacingAndGlyphs" textLength="48" x="799.25" y="311.514">Customer</text><line style="stroke: #A80036; stroke-width: 1.5;" x1="660" x2="954" y1="323.5" y2="323.5"/><line style="stroke: #A80036; stroke-width: 1.5;" x1="660" x2="954" y1="331.5" y2="331.5"/><ellipse cx="670" cy="342.5" fill="#84BE84" rx="3" ry="3" style="stroke: #038048; stroke-width: 1.0;"/><text fill="#000000" font-family="sans-serif" font-size="11" lengthAdjust="spacingAndGlyphs" textLength="78" x="679" y="344.9489">Customer(int)</text><ellipse cx="670" cy="354.0389" fill="#84BE84" rx="3" ry="3" style="stroke: #038048; stroke-width: 1.0;"/><text fill="#000000" font-family="sans-serif" font-size="11" lengthAdjust="spacingAndGlyphs" textLength="270" x="679" y="356.4878">Customer(int, String, String, String, String)</text><ellipse cx="670" cy="365.5778" fill="#84BE84" rx="3" ry="3" style="stroke: #038048; stroke-width: 1.0;"/><text fill="#000000" font-family="sans-serif" font-size="11" lengthAdjust="spacingAndGlyphs" textLength="240" x="679" y="368.0268">Customer(String, String, String, String)</text><ellipse cx="670" cy="377.1167" fill="#84BE84" rx="3" ry="3" style="stroke: #038048; stroke-width: 1.0;"/><text fill="#000000" font-family="sans-serif" font-size="11" lengthAdjust="spacingAndGlyphs" textLength="120" x="679" y="379.5657">getCustomerID(): int</text><ellipse cx="670" cy="388.6557" fill="#84BE84" rx="3" ry="3" style="stroke: #038048; stroke-width: 1.0;"/><text fill="#000000" font-family="sans-serif" font-size="11" lengthAdjust="spacingAndGlyphs" textLength="126" x="679" y="391.1046">getPublicID(): String</text><ellipse cx="670" cy="400.1946" fill="#84BE84" rx="3" ry="3" style="stroke: #038048; stroke-width: 1.0;"/><text fill="#000000" font-family="sans-serif" font-size="11" lengthAdjust="spacingAndGlyphs" textLength="150" x="679" y="402.6435">setPublicID(String): void</text><ellipse cx="670" cy="411.7335" fill="#84BE84" rx="3" ry="3" style="stroke: #038048; stroke-width: 1.0;"/><text fill="#000000" font-family="sans-serif" font-size="11" lengthAdjust="spacingAndGlyphs" textLength="150" x="679" y="414.1824">getCustomerName(): String</text><ellipse cx="670" cy="423.2724" fill="#84BE84" rx="3" ry="3" style="stroke: #038048; stroke-width: 1.0;"/><text fill="#000000" font-family="sans-serif" font-size="11" lengthAdjust="spacingAndGlyphs" textLength="174" x="679" y="425.7213">setCustomerName(String): void</text><ellipse cx="670" cy="434.8113" fill="#84BE84" rx="3" ry="3" style="stroke: #038048; stroke-width: 1.0;"/><text fill="#000000" font-family="sans-serif" font-size="11" lengthAdjust="spacingAndGlyphs" textLength="120" x="679" y="437.2602">getAddress(): String</text><ellipse cx="670" cy="446.3502" fill="#84BE84" rx="3" ry="3" style="stroke: #038048; stroke-width: 1.0;"/><text fill="#000000" font-family="sans-serif" font-size="11" lengthAdjust="spacingAndGlyphs" textLength="144" x="679" y="448.7992">setAddress(String): void</text><ellipse cx="670" cy="457.8891" fill="#84BE84" rx="3" ry="3" style="stroke: #038048; stroke-width: 1.0;"/><text fill="#000000" font-family="sans-serif" font-size="11" lengthAdjust="spacingAndGlyphs" textLength="156" x="679" y="460.3381">getPaymentMethod(): String</text><ellipse cx="670" cy="469.4281" fill="#84BE84" rx="3" ry="3" style="stroke: #038048; stroke-width: 1.0;"/><text fill="#000000" font-family="sans-serif" font-size="11" lengthAdjust="spacingAndGlyphs" textLength="180" x="679" y="471.877">setPaymentMethod(String): void</text></a><!--MD5=[fb175dbc78a6e0d4d6b2b6905be2d740]
class nitrogenhotel.db.entries.Booking--><a href="Booking.html" target="_top" title="Booking.html" xlink:actuate="onRequest" xlink:href="Booking.html" xlink:show="new" xlink:title="Booking.html" xlink:type="simple"><rect codeLine="18" fill="#FEFECE" filter="url(#fwowtys36i46n)" height="151.8502" id="nitrogenhotel.db.entries.Booking" style="stroke: #A80036; stroke-width: 1.5;" width="242" x="1041" y="41"/><ellipse cx="1136.75" cy="57" fill="#ADD1B2" rx="11" ry="11" style="stroke: #A80036; stroke-width: 1.0;"/><path d="M1139.7188,62.6406 Q1139.1406,62.9375 1138.5,63.0781 Q1137.8594,63.2344 1137.1563,63.2344 Q1134.6563,63.2344 1133.3281,61.5938 Q1132.0156,59.9375 1132.0156,56.8125 Q1132.0156,53.6875 1133.3281,52.0313 Q1134.6563,50.375 1137.1563,50.375 Q1137.8594,50.375 1138.5,50.5313 Q1139.1563,50.6875 1139.7188,50.9844 L1139.7188,53.7031 Q1139.0938,53.125 1138.5,52.8594 Q1137.9063,52.5781 1137.2813,52.5781 Q1135.9375,52.5781 1135.25,53.6563 Q1134.5625,54.7188 1134.5625,56.8125 Q1134.5625,58.9063 1135.25,59.9844 Q1135.9375,61.0469 1137.2813,61.0469 Q1137.9063,61.0469 1138.5,60.7813 Q1139.0938,60.5 1139.7188,59.9219 L1139.7188,62.6406 Z "/><text fill="#000000" font-family="sans-serif" font-size="12" lengthAdjust="spacingAndGlyphs" textLength="42" x="1157.25" y="61.014">Booking</text><line style="stroke: #A80036; stroke-width: 1.5;" x1="1042" x2="1282" y1="73" y2="73"/><line style="stroke: #A80036; stroke-width: 1.5;" x1="1042" x2="1282" y1="81" y2="81"/><ellipse cx="1052" cy="92" fill="#84BE84" rx="3" ry="3" style="stroke: #038048; stroke-width: 1.0;"/><text fill="#000000" font-family="sans-serif" font-size="11" lengthAdjust="spacingAndGlyphs" textLength="72" x="1061" y="94.4489">Booking(int)</text><ellipse cx="1052" cy="103.5389" fill="#84BE84" rx="3" ry="3" style="stroke: #038048; stroke-width: 1.0;"/><text fill="#000000" font-family="sans-serif" font-size="11" lengthAdjust="spacingAndGlyphs" textLength="78" x="1061" y="105.9878">Booking(Room)</text><ellipse cx="1052" cy="115.0778" fill="#84BE84" rx="3" ry="3" style="stroke: #038048; stroke-width: 1.0;"/><text fill="#000000" font-family="sans-serif" font-size="11" lengthAdjust="spacingAndGlyphs" textLength="216" x="1061" y="117.5268">Booking(Reservation, Room, Customer)</text><ellipse cx="1052" cy="126.6167" fill="#84BE84" rx="3" ry="3" style="stroke: #038048; stroke-width: 1.0;"/><text fill="#000000" font-family="sans-serif" font-size="11" lengthAdjust="spacingAndGlyphs" textLength="120" x="1061" y="129.0657">Booking(Reservation)</text><ellipse cx="1052" cy="138.1557" fill="#84BE84" rx="3" ry="3" style="stroke: #038048; stroke-width: 1.0;"/><text fill="#000000" font-family="sans-serif" font-size="11" lengthAdjust="spacingAndGlyphs" textLength="198" x="1061" y="140.6046">equalCustomerID(Booking): boolean</text><ellipse cx="1052" cy="149.6946" fill="#84BE84" rx="3" ry="3" style="stroke: #038048; stroke-width: 1.0;"/><text fill="#000000" font-family="sans-serif" font-size="11" lengthAdjust="spacingAndGlyphs" textLength="174" x="1061" y="152.1435">equalRoomID(Booking): boolean</text><ellipse cx="1052" cy="161.2335" fill="#84BE84" rx="3" ry="3" style="stroke: #038048; stroke-width: 1.0;"/><text fill="#000000" font-family="sans-serif" font-size="11" lengthAdjust="spacingAndGlyphs" textLength="192" x="1061" y="163.6824">equalStartDate(Booking): boolean</text><ellipse cx="1052" cy="172.7724" fill="#84BE84" rx="3" ry="3" style="stroke: #038048; stroke-width: 1.0;"/><text fill="#000000" font-family="sans-serif" font-size="11" lengthAdjust="spacingAndGlyphs" textLength="180" x="1061" y="175.2213">equalEndDate(Booking): boolean</text><ellipse cx="1052" cy="184.3113" fill="#84BE84" rx="3" ry="3" style="stroke: #038048; stroke-width: 1.0;"/><text fill="#000000" font-family="sans-serif" font-size="11" lengthAdjust="spacingAndGlyphs" textLength="162" x="1061" y="186.7602">equalPaid(Booking): boolean</text></a><!--MD5=[267245f0935b9aa24513832e70ebe9d9]
class nitrogenhotel.db.entries.Admin--><a href="Admin.html" target="_top" title="Admin.html" xlink:actuate="onRequest" xlink:href="Admin.html" xlink:show="new" xlink:title="Admin.html" xlink:type="simple"><rect codeLine="30" fill="#FEFECE" filter="url(#fwowtys36i46n)" height="71.0778" id="nitrogenhotel.db.entries.Admin" style="stroke: #A80036; stroke-width: 1.5;" width="200" x="32" y="349"/><ellipse cx="112.75" cy="365" fill="#ADD1B2" rx="11" ry="11" style="stroke: #A80036; stroke-width: 1.0;"/><path d="M115.7188,370.6406 Q115.1406,370.9375 114.5,371.0781 Q113.8594,371.2344 113.1563,371.2344 Q110.6563,371.2344 109.3281,369.5938 Q108.0156,367.9375 108.0156,364.8125 Q108.0156,361.6875 109.3281,360.0313 Q110.6563,358.375 113.1563,358.375 Q113.8594,358.375 114.5,358.5313 Q115.1563,358.6875 115.7188,358.9844 L115.7188,361.7031 Q115.0938,361.125 114.5,360.8594 Q113.9063,360.5781 113.2813,360.5781 Q111.9375,360.5781 111.25,361.6563 Q110.5625,362.7188 110.5625,364.8125 Q110.5625,366.9063 111.25,367.9844 Q111.9375,369.0469 113.2813,369.0469 Q113.9063,369.0469 114.5,368.7813 Q115.0938,368.5 115.7188,367.9219 L115.7188,370.6406 Z "/><text fill="#000000" font-family="sans-serif" font-size="12" lengthAdjust="spacingAndGlyphs" textLength="30" x="133.25" y="369.014">Admin</text><line style="stroke: #A80036; stroke-width: 1.5;" x1="33" x2="231" y1="381" y2="381"/><line style="stroke: #A80036; stroke-width: 1.5;" x1="33" x2="231" y1="389" y2="389"/><ellipse cx="43" cy="400" fill="#84BE84" rx="3" ry="3" style="stroke: #038048; stroke-width: 1.0;"/><text fill="#000000" font-family="sans-serif" font-size="11" lengthAdjust="spacingAndGlyphs" textLength="174" x="52" y="402.4489">Admin(String, String, String)</text><ellipse cx="43" cy="411.5389" fill="#84BE84" rx="3" ry="3" style="stroke: #038048; stroke-width: 1.0;"/><text fill="#000000" font-family="sans-serif" font-size="11" lengthAdjust="spacingAndGlyphs" textLength="78" x="52" y="413.9878">Admin(String)</text></a><!--MD5=[0fe37568a55876f4e2957e0e5c5a308a]
class nitrogenhotel.db.entries.Reservation--><a href="Reservation.html" target="_top" title="Reservation.html" xlink:actuate="onRequest" xlink:href="Reservation.html" xlink:show="new" xlink:title="Reservation.html" xlink:type="simple"><rect codeLine="35" fill="#FEFECE" filter="url(#fwowtys36i46n)" height="209.5448" id="nitrogenhotel.db.entries.Reservation" style="stroke: #A80036; stroke-width: 1.5;" width="344" x="990" y="279.5"/><ellipse cx="1124.75" cy="295.5" fill="#ADD1B2" rx="11" ry="11" style="stroke: #A80036; stroke-width: 1.0;"/><path d="M1127.7188,301.1406 Q1127.1406,301.4375 1126.5,301.5781 Q1125.8594,301.7344 1125.1563,301.7344 Q1122.6563,301.7344 1121.3281,300.0938 Q1120.0156,298.4375 1120.0156,295.3125 Q1120.0156,292.1875 1121.3281,290.5313 Q1122.6563,288.875 1125.1563,288.875 Q1125.8594,288.875 1126.5,289.0313 Q1127.1563,289.1875 1127.7188,289.4844 L1127.7188,292.2031 Q1127.0938,291.625 1126.5,291.3594 Q1125.9063,291.0781 1125.2813,291.0781 Q1123.9375,291.0781 1123.25,292.1563 Q1122.5625,293.2188 1122.5625,295.3125 Q1122.5625,297.4063 1123.25,298.4844 Q1123.9375,299.5469 1125.2813,299.5469 Q1125.9063,299.5469 1126.5,299.2813 Q1127.0938,299 1127.7188,298.4219 L1127.7188,301.1406 Z "/><text fill="#000000" font-family="sans-serif" font-size="12" lengthAdjust="spacingAndGlyphs" textLength="66" x="1145.25" y="299.514">Reservation</text><line style="stroke: #A80036; stroke-width: 1.5;" x1="991" x2="1333" y1="311.5" y2="311.5"/><line style="stroke: #A80036; stroke-width: 1.5;" x1="991" x2="1333" y1="319.5" y2="319.5"/><ellipse cx="1001" cy="330.5" fill="#84BE84" rx="3" ry="3" style="stroke: #038048; stroke-width: 1.0;"/><text fill="#000000" font-family="sans-serif" font-size="11" lengthAdjust="spacingAndGlyphs" textLength="96" x="1010" y="332.9489">Reservation(int)</text><ellipse cx="1001" cy="342.0389" fill="#84BE84" rx="3" ry="3" style="stroke: #038048; stroke-width: 1.0;"/><text fill="#000000" font-family="sans-serif" font-size="11" lengthAdjust="spacingAndGlyphs" textLength="288" x="1010" y="344.4878">Reservation(int, int, Instant, Instant, boolean)</text><ellipse cx="1001" cy="353.5778" fill="#84BE84" rx="3" ry="3" style="stroke: #038048; stroke-width: 1.0;"/><text fill="#000000" font-family="sans-serif" font-size="11" lengthAdjust="spacingAndGlyphs" textLength="318" x="1010" y="356.0268">Reservation(int, int, int, Instant, Instant, boolean)</text><ellipse cx="1001" cy="365.1167" fill="#84BE84" rx="3" ry="3" style="stroke: #038048; stroke-width: 1.0;"/><text fill="#000000" font-family="sans-serif" font-size="11" lengthAdjust="spacingAndGlyphs" textLength="138" x="1010" y="367.5657">getReservationID(): int</text><ellipse cx="1001" cy="376.6557" fill="#84BE84" rx="3" ry="3" style="stroke: #038048; stroke-width: 1.0;"/><text fill="#000000" font-family="sans-serif" font-size="11" lengthAdjust="spacingAndGlyphs" textLength="120" x="1010" y="379.1046">getCustomerID(): int</text><ellipse cx="1001" cy="388.1946" fill="#84BE84" rx="3" ry="3" style="stroke: #038048; stroke-width: 1.0;"/><text fill="#000000" font-family="sans-serif" font-size="11" lengthAdjust="spacingAndGlyphs" textLength="144" x="1010" y="390.6435">setCustomerID(int): void</text><ellipse cx="1001" cy="399.7335" fill="#84BE84" rx="3" ry="3" style="stroke: #038048; stroke-width: 1.0;"/><text fill="#000000" font-family="sans-serif" font-size="11" lengthAdjust="spacingAndGlyphs" textLength="96" x="1010" y="402.1824">getRoomID(): int</text><ellipse cx="1001" cy="411.2724" fill="#84BE84" rx="3" ry="3" style="stroke: #038048; stroke-width: 1.0;"/><text fill="#000000" font-family="sans-serif" font-size="11" lengthAdjust="spacingAndGlyphs" textLength="120" x="1010" y="413.7213">setRoomID(int): void</text><ellipse cx="1001" cy="422.8113" fill="#84BE84" rx="3" ry="3" style="stroke: #038048; stroke-width: 1.0;"/><text fill="#000000" font-family="sans-serif" font-size="11" lengthAdjust="spacingAndGlyphs" textLength="138" x="1010" y="425.2602">getStartDate(): Instant</text><ellipse cx="1001" cy="434.3502" fill="#84BE84" rx="3" ry="3" style="stroke: #038048; stroke-width: 1.0;"/><text fill="#000000" font-family="sans-serif" font-size="11" lengthAdjust="spacingAndGlyphs" textLength="162" x="1010" y="436.7992">setStartDate(Instant): void</text><ellipse cx="1001" cy="445.8891" fill="#84BE84" rx="3" ry="3" style="stroke: #038048; stroke-width: 1.0;"/><text fill="#000000" font-family="sans-serif" font-size="11" lengthAdjust="spacingAndGlyphs" textLength="126" x="1010" y="448.3381">getEndDate(): Instant</text><ellipse cx="1001" cy="457.4281" fill="#84BE84" rx="3" ry="3" style="stroke: #038048; stroke-width: 1.0;"/><text fill="#000000" font-family="sans-serif" font-size="11" lengthAdjust="spacingAndGlyphs" textLength="150" x="1010" y="459.877">setEndDate(Instant): void</text><ellipse cx="1001" cy="468.967" fill="#84BE84" rx="3" ry="3" style="stroke: #038048; stroke-width: 1.0;"/><text fill="#000000" font-family="sans-serif" font-size="11" lengthAdjust="spacingAndGlyphs" textLength="108" x="1010" y="471.4159">getPaid(): boolean</text><ellipse cx="1001" cy="480.5059" fill="#84BE84" rx="3" ry="3" style="stroke: #038048; stroke-width: 1.0;"/><text fill="#000000" font-family="sans-serif" font-size="11" lengthAdjust="spacingAndGlyphs" textLength="132" x="1010" y="482.9548">setPaid(boolean): void</text></a><!--MD5=[09449220304c25a8e76d63bac593e7c8]
class nitrogenhotel.db.entries.Room--><a href="Room.html" target="_top" title="Room.html" xlink:actuate="onRequest" xlink:href="Room.html" xlink:show="new" xlink:title="Room.html" xlink:type="simple"><rect codeLine="52" fill="#FEFECE" filter="url(#fwowtys36i46n)" height="232.6226" id="nitrogenhotel.db.entries.Room" style="stroke: #A80036; stroke-width: 1.5;" width="266" x="1369" y="268"/><ellipse cx="1485.75" cy="284" fill="#ADD1B2" rx="11" ry="11" style="stroke: #A80036; stroke-width: 1.0;"/><path d="M1488.7188,289.6406 Q1488.1406,289.9375 1487.5,290.0781 Q1486.8594,290.2344 1486.1563,290.2344 Q1483.6563,290.2344 1482.3281,288.5938 Q1481.0156,286.9375 1481.0156,283.8125 Q1481.0156,280.6875 1482.3281,279.0313 Q1483.6563,277.375 1486.1563,277.375 Q1486.8594,277.375 1487.5,277.5313 Q1488.1563,277.6875 1488.7188,277.9844 L1488.7188,280.7031 Q1488.0938,280.125 1487.5,279.8594 Q1486.9063,279.5781 1486.2813,279.5781 Q1484.9375,279.5781 1484.25,280.6563 Q1483.5625,281.7188 1483.5625,283.8125 Q1483.5625,285.9063 1484.25,286.9844 Q1484.9375,288.0469 1486.2813,288.0469 Q1486.9063,288.0469 1487.5,287.7813 Q1488.0938,287.5 1488.7188,286.9219 L1488.7188,289.6406 Z "/><text fill="#000000" font-family="sans-serif" font-size="12" lengthAdjust="spacingAndGlyphs" textLength="24" x="1506.25" y="288.014">Room</text><line style="stroke: #A80036; stroke-width: 1.5;" x1="1370" x2="1634" y1="300" y2="300"/><line style="stroke: #A80036; stroke-width: 1.5;" x1="1370" x2="1634" y1="308" y2="308"/><ellipse cx="1380" cy="319" fill="#84BE84" rx="3" ry="3" style="stroke: #038048; stroke-width: 1.0;"/><text fill="#000000" font-family="sans-serif" font-size="11" lengthAdjust="spacingAndGlyphs" textLength="54" x="1389" y="321.4489">Room(int)</text><ellipse cx="1380" cy="330.5389" fill="#84BE84" rx="3" ry="3" style="stroke: #038048; stroke-width: 1.0;"/><text fill="#000000" font-family="sans-serif" font-size="11" lengthAdjust="spacingAndGlyphs" textLength="72" x="1389" y="332.9878">Room(String)</text><ellipse cx="1380" cy="342.0778" fill="#84BE84" rx="3" ry="3" style="stroke: #038048; stroke-width: 1.0;"/><text fill="#000000" font-family="sans-serif" font-size="11" lengthAdjust="spacingAndGlyphs" textLength="162" x="1389" y="344.5268">Room(int, String, int, int)</text><ellipse cx="1380" cy="353.6167" fill="#84BE84" rx="3" ry="3" style="stroke: #038048; stroke-width: 1.0;"/><text fill="#000000" font-family="sans-serif" font-size="11" lengthAdjust="spacingAndGlyphs" textLength="210" x="1389" y="356.0657">Room(int, String, int, int, String)</text><ellipse cx="1380" cy="365.1557" fill="#84BE84" rx="3" ry="3" style="stroke: #038048; stroke-width: 1.0;"/><text fill="#000000" font-family="sans-serif" font-size="11" lengthAdjust="spacingAndGlyphs" textLength="240" x="1389" y="367.6046">Room(int, int, String, int, int, String)</text><ellipse cx="1380" cy="376.6946" fill="#84BE84" rx="3" ry="3" style="stroke: #038048; stroke-width: 1.0;"/><text fill="#000000" font-family="sans-serif" font-size="11" lengthAdjust="spacingAndGlyphs" textLength="96" x="1389" y="379.1435">getNumber(): int</text><ellipse cx="1380" cy="388.2335" fill="#84BE84" rx="3" ry="3" style="stroke: #038048; stroke-width: 1.0;"/><text fill="#000000" font-family="sans-serif" font-size="11" lengthAdjust="spacingAndGlyphs" textLength="120" x="1389" y="390.6824">setNumber(int): void</text><ellipse cx="1380" cy="399.7724" fill="#84BE84" rx="3" ry="3" style="stroke: #038048; stroke-width: 1.0;"/><text fill="#000000" font-family="sans-serif" font-size="11" lengthAdjust="spacingAndGlyphs" textLength="102" x="1389" y="402.2213">getSize(): String</text><ellipse cx="1380" cy="411.3113" fill="#84BE84" rx="3" ry="3" style="stroke: #038048; stroke-width: 1.0;"/><text fill="#000000" font-family="sans-serif" font-size="11" lengthAdjust="spacingAndGlyphs" textLength="126" x="1389" y="413.7602">setSize(String): void</text><ellipse cx="1380" cy="422.8502" fill="#84BE84" rx="3" ry="3" style="stroke: #038048; stroke-width: 1.0;"/><text fill="#000000" font-family="sans-serif" font-size="11" lengthAdjust="spacingAndGlyphs" textLength="96" x="1389" y="425.2992">getNbBeds(): int</text><ellipse cx="1380" cy="434.3891" fill="#84BE84" rx="3" ry="3" style="stroke: #038048; stroke-width: 1.0;"/><text fill="#000000" font-family="sans-serif" font-size="11" lengthAdjust="spacingAndGlyphs" textLength="120" x="1389" y="436.8381">setNbBeds(int): void</text><ellipse cx="1380" cy="445.9281" fill="#84BE84" rx="3" ry="3" style="stroke: #038048; stroke-width: 1.0;"/><text fill="#000000" font-family="sans-serif" font-size="11" lengthAdjust="spacingAndGlyphs" textLength="102" x="1389" y="448.377">getNote(): String</text><ellipse cx="1380" cy="457.467" fill="#84BE84" rx="3" ry="3" style="stroke: #038048; stroke-width: 1.0;"/><text fill="#000000" font-family="sans-serif" font-size="11" lengthAdjust="spacingAndGlyphs" textLength="126" x="1389" y="459.9159">setNote(String): void</text><ellipse cx="1380" cy="469.0059" fill="#84BE84" rx="3" ry="3" style="stroke: #038048; stroke-width: 1.0;"/><text fill="#000000" font-family="sans-serif" font-size="11" lengthAdjust="spacingAndGlyphs" textLength="90" x="1389" y="471.4548">getFloor(): int</text><ellipse cx="1380" cy="480.5448" fill="#84BE84" rx="3" ry="3" style="stroke: #038048; stroke-width: 1.0;"/><text fill="#000000" font-family="sans-serif" font-size="11" lengthAdjust="spacingAndGlyphs" textLength="114" x="1389" y="482.9937">setFloor(int): void</text><ellipse cx="1380" cy="492.0837" fill="#84BE84" rx="3" ry="3" style="stroke: #038048; stroke-width: 1.0;"/><text fill="#000000" font-family="sans-serif" font-size="11" lengthAdjust="spacingAndGlyphs" textLength="96" x="1389" y="494.5326">getRoomID(): int</text></a><!--MD5=[27d02be93211212e11f635ddbe9f078b]
class nitrogenhotel.db.entries.User--><a href="User.html" target="_top" title="User.html" xlink:actuate="onRequest" xlink:href="User.html" xlink:show="new" xlink:title="User.html" xlink:type="simple"><rect codeLine="71" fill="#FEFECE" filter="url(#fwowtys36i46n)" height="140.3113" id="nitrogenhotel.db.entries.User" style="stroke: #A80036; stroke-width: 1.5;" width="194" x="460" y="47"/><ellipse cx="540.75" cy="63" fill="#ADD1B2" rx="11" ry="11" style="stroke: #A80036; stroke-width: 1.0;"/><path d="M543.7188,68.6406 Q543.1406,68.9375 542.5,69.0781 Q541.8594,69.2344 541.1563,69.2344 Q538.6563,69.2344 537.3281,67.5938 Q536.0156,65.9375 536.0156,62.8125 Q536.0156,59.6875 537.3281,58.0313 Q538.6563,56.375 541.1563,56.375 Q541.8594,56.375 542.5,56.5313 Q543.1563,56.6875 543.7188,56.9844 L543.7188,59.7031 Q543.0938,59.125 542.5,58.8594 Q541.9063,58.5781 541.2813,58.5781 Q539.9375,58.5781 539.25,59.6563 Q538.5625,60.7188 538.5625,62.8125 Q538.5625,64.9063 539.25,65.9844 Q539.9375,67.0469 541.2813,67.0469 Q541.9063,67.0469 542.5,66.7813 Q543.0938,66.5 543.7188,65.9219 L543.7188,68.6406 Z "/><text fill="#000000" font-family="sans-serif" font-size="12" lengthAdjust="spacingAndGlyphs" textLength="24" x="561.25" y="67.014">User</text><line style="stroke: #A80036; stroke-width: 1.5;" x1="461" x2="653" y1="79" y2="79"/><line style="stroke: #A80036; stroke-width: 1.5;" x1="461" x2="653" y1="87" y2="87"/><ellipse cx="471" cy="98" fill="#84BE84" rx="3" ry="3" style="stroke: #038048; stroke-width: 1.0;"/><text fill="#000000" font-family="sans-serif" font-size="11" lengthAdjust="spacingAndGlyphs" textLength="168" x="480" y="100.4489">User(String, String, String)</text><ellipse cx="471" cy="109.5389" fill="#84BE84" rx="3" ry="3" style="stroke: #038048; stroke-width: 1.0;"/><text fill="#000000" font-family="sans-serif" font-size="11" lengthAdjust="spacingAndGlyphs" textLength="72" x="480" y="111.9878">User(String)</text><ellipse cx="471" cy="121.0778" fill="#84BE84" rx="3" ry="3" style="stroke: #038048; stroke-width: 1.0;"/><text fill="#000000" font-family="sans-serif" font-size="11" lengthAdjust="spacingAndGlyphs" textLength="126" x="480" y="123.5268">getUserName(): String</text><ellipse cx="471" cy="132.6167" fill="#84BE84" rx="3" ry="3" style="stroke: #038048; stroke-width: 1.0;"/><text fill="#000000" font-family="sans-serif" font-size="11" lengthAdjust="spacingAndGlyphs" textLength="150" x="480" y="135.0657">setUserName(String): void</text><ellipse cx="471" cy="144.1557" fill="#84BE84" rx="3" ry="3" style="stroke: #038048; stroke-width: 1.0;"/><text fill="#000000" font-family="sans-serif" font-size="11" lengthAdjust="spacingAndGlyphs" textLength="138" x="480" y="146.6046">getScreenName(): String</text><ellipse cx="471" cy="155.6946" fill="#84BE84" rx="3" ry="3" style="stroke: #038048; stroke-width: 1.0;"/><text fill="#000000" font-family="sans-serif" font-size="11" lengthAdjust="spacingAndGlyphs" textLength="162" x="480" y="158.1435">setScreenName(String): void</text><ellipse cx="471" cy="167.2335" fill="#84BE84" rx="3" ry="3" style="stroke: #038048; stroke-width: 1.0;"/><text fill="#000000" font-family="sans-serif" font-size="11" lengthAdjust="spacingAndGlyphs" textLength="126" x="480" y="169.6824">getPassword(): String</text><ellipse cx="471" cy="178.7724" fill="#84BE84" rx="3" ry="3" style="stroke: #038048; stroke-width: 1.0;"/><text fill="#000000" font-family="sans-serif" font-size="11" lengthAdjust="spacingAndGlyphs" textLength="150" x="480" y="181.2213">setPassword(String): void</text></a><!--MD5=[6c30f83074b767ed3e8624a8b22bf6da]
class nitrogenhotel.db.entries.ReceptionStaff--><a href="ReceptionStaff.html" target="_top" title="ReceptionStaff.html" xlink:actuate="onRequest" xlink:href="ReceptionStaff.html" xlink:show="new" xlink:title="ReceptionStaff.html" xlink:type="simple"><rect codeLine="82" fill="#FEFECE" filter="url(#fwowtys36i46n)" height="71.0778" id="nitrogenhotel.db.entries.ReceptionStaff" style="stroke: #A80036; stroke-width: 1.5;" width="254" x="267" y="349"/><ellipse cx="347.75" cy="365" fill="#ADD1B2" rx="11" ry="11" style="stroke: #A80036; stroke-width: 1.0;"/><path d="M350.7188,370.6406 Q350.1406,370.9375 349.5,371.0781 Q348.8594,371.2344 348.1563,371.2344 Q345.6563,371.2344 344.3281,369.5938 Q343.0156,367.9375 343.0156,364.8125 Q343.0156,361.6875 344.3281,360.0313 Q345.6563,358.375 348.1563,358.375 Q348.8594,358.375 349.5,358.5313 Q350.1563,358.6875 350.7188,358.9844 L350.7188,361.7031 Q350.0938,361.125 349.5,360.8594 Q348.9063,360.5781 348.2813,360.5781 Q346.9375,360.5781 346.25,361.6563 Q345.5625,362.7188 345.5625,364.8125 Q345.5625,366.9063 346.25,367.9844 Q346.9375,369.0469 348.2813,369.0469 Q348.9063,369.0469 349.5,368.7813 Q350.0938,368.5 350.7188,367.9219 L350.7188,370.6406 Z "/><text fill="#000000" font-family="sans-serif" font-size="12" lengthAdjust="spacingAndGlyphs" textLength="84" x="368.25" y="369.014">ReceptionStaff</text><line style="stroke: #A80036; stroke-width: 1.5;" x1="268" x2="520" y1="381" y2="381"/><line style="stroke: #A80036; stroke-width: 1.5;" x1="268" x2="520" y1="389" y2="389"/><ellipse cx="278" cy="400" fill="#84BE84" rx="3" ry="3" style="stroke: #038048; stroke-width: 1.0;"/><text fill="#000000" font-family="sans-serif" font-size="11" lengthAdjust="spacingAndGlyphs" textLength="228" x="287" y="402.4489">ReceptionStaff(String, String, String)</text><ellipse cx="278" cy="411.5389" fill="#84BE84" rx="3" ry="3" style="stroke: #038048; stroke-width: 1.0;"/><text fill="#000000" font-family="sans-serif" font-size="11" lengthAdjust="spacingAndGlyphs" textLength="132" x="287" y="413.9878">ReceptionStaff(String)</text></a><!--MD5=[8cc9f81fd2a34a4f4de7584edc8c61e0]
class nitrogenhotel.db.entries.Floor--><a href="Floor.html" target="_top" title="Floor.html" xlink:actuate="onRequest" xlink:href="Floor.html" xlink:show="new" xlink:title="Floor.html" xlink:type="simple"><rect codeLine="87" fill="#FEFECE" filter="url(#fwowtys36i46n)" height="82.6167" id="nitrogenhotel.db.entries.Floor" style="stroke: #A80036; stroke-width: 1.5;" width="176" x="249" y="75.5"/><ellipse cx="317.75" cy="91.5" fill="#ADD1B2" rx="11" ry="11" style="stroke: #A80036; stroke-width: 1.0;"/><path d="M320.7188,97.1406 Q320.1406,97.4375 319.5,97.5781 Q318.8594,97.7344 318.1563,97.7344 Q315.6563,97.7344 314.3281,96.0938 Q313.0156,94.4375 313.0156,91.3125 Q313.0156,88.1875 314.3281,86.5313 Q315.6563,84.875 318.1563,84.875 Q318.8594,84.875 319.5,85.0313 Q320.1563,85.1875 320.7188,85.4844 L320.7188,88.2031 Q320.0938,87.625 319.5,87.3594 Q318.9063,87.0781 318.2813,87.0781 Q316.9375,87.0781 316.25,88.1563 Q315.5625,89.2188 315.5625,91.3125 Q315.5625,93.4063 316.25,94.4844 Q316.9375,95.5469 318.2813,95.5469 Q318.9063,95.5469 319.5,95.2813 Q320.0938,95 320.7188,94.4219 L320.7188,97.1406 Z "/><text fill="#000000" font-family="sans-serif" font-size="12" lengthAdjust="spacingAndGlyphs" textLength="30" x="338.25" y="95.514">Floor</text><line style="stroke: #A80036; stroke-width: 1.5;" x1="250" x2="424" y1="107.5" y2="107.5"/><line style="stroke: #A80036; stroke-width: 1.5;" x1="250" x2="424" y1="115.5" y2="115.5"/><ellipse cx="260" cy="126.5" fill="#84BE84" rx="3" ry="3" style="stroke: #038048; stroke-width: 1.0;"/><text fill="#000000" font-family="sans-serif" font-size="11" lengthAdjust="spacingAndGlyphs" textLength="60" x="269" y="128.9489">Floor(int)</text><ellipse cx="260" cy="138.0389" fill="#84BE84" rx="3" ry="3" style="stroke: #038048; stroke-width: 1.0;"/><text fill="#000000" font-family="sans-serif" font-size="11" lengthAdjust="spacingAndGlyphs" textLength="126" x="269" y="140.4878">getFloorNumber(): int</text><ellipse cx="260" cy="149.5778" fill="#84BE84" rx="3" ry="3" style="stroke: #038048; stroke-width: 1.0;"/><text fill="#000000" font-family="sans-serif" font-size="11" lengthAdjust="spacingAndGlyphs" textLength="150" x="269" y="152.0268">setFloorNumber(int): void</text></a><!--MD5=[5a1a42d8ef39f90d13e216fbde070b10]
class nitrogenhotel.db.entries.RoomType--><a href="RoomType.html" target="_top" title="RoomType.html" xlink:actuate="onRequest" xlink:href="RoomType.html" xlink:show="new" xlink:title="RoomType.html" xlink:type="simple"><rect codeLine="93" fill="#FEFECE" filter="url(#fwowtys36i46n)" height="140.3113" id="nitrogenhotel.db.entries.RoomType" style="stroke: #A80036; stroke-width: 1.5;" width="182" x="32" y="47"/><ellipse cx="94.75" cy="63" fill="#EB937F" rx="11" ry="11" style="stroke: #A80036; stroke-width: 1.0;"/><path d="M98.8594,69 L91.1406,69 L91.1406,56.6094 L98.8594,56.6094 L98.8594,58.7656 L93.5938,58.7656 L93.5938,61.4375 L98.3594,61.4375 L98.3594,63.5938 L93.5938,63.5938 L93.5938,66.8438 L98.8594,66.8438 L98.8594,69 Z "/><text fill="#000000" font-family="sans-serif" font-size="12" lengthAdjust="spacingAndGlyphs" textLength="48" x="115.25" y="67.014">RoomType</text><line style="stroke: #A80036; stroke-width: 1.5;" x1="33" x2="213" y1="79" y2="79"/><ellipse cx="43" cy="90" fill="none" rx="3" ry="3" style="stroke: #038048; stroke-width: 1.0;"/><text fill="#000000" font-family="sans-serif" font-size="11" lengthAdjust="spacingAndGlyphs" text-decoration="underline" textLength="36" x="52" y="92.4489">SINGLE</text><ellipse cx="43" cy="101.5389" fill="none" rx="3" ry="3" style="stroke: #038048; stroke-width: 1.0;"/><text fill="#000000" font-family="sans-serif" font-size="11" lengthAdjust="spacingAndGlyphs" text-decoration="underline" textLength="36" x="52" y="103.9878">DOUBLE</text><ellipse cx="43" cy="113.0778" fill="none" rx="3" ry="3" style="stroke: #038048; stroke-width: 1.0;"/><text fill="#000000" font-family="sans-serif" font-size="11" lengthAdjust="spacingAndGlyphs" text-decoration="underline" textLength="36" x="52" y="115.5268">TRIPLE</text><ellipse cx="43" cy="124.6167" fill="none" rx="3" ry="3" style="stroke: #038048; stroke-width: 1.0;"/><text fill="#000000" font-family="sans-serif" font-size="11" lengthAdjust="spacingAndGlyphs" text-decoration="underline" textLength="24" x="52" y="127.0657">QUAD</text><ellipse cx="43" cy="136.1557" fill="none" rx="3" ry="3" style="stroke: #038048; stroke-width: 1.0;"/><text fill="#000000" font-family="sans-serif" font-size="11" lengthAdjust="spacingAndGlyphs" text-decoration="underline" textLength="24" x="52" y="138.6046">NONE</text><ellipse cx="43" cy="147.6946" fill="none" rx="3" ry="3" style="stroke: #038048; stroke-width: 1.0;"/><text fill="#000000" font-family="sans-serif" font-size="11" lengthAdjust="spacingAndGlyphs" textLength="72" x="52" y="150.1435">size: String</text><line style="stroke: #A80036; stroke-width: 1.5;" x1="33" x2="213" y1="156.2335" y2="156.2335"/><ellipse cx="43" cy="167.2335" fill="#84BE84" rx="3" ry="3" style="stroke: #038048; stroke-width: 1.0;"/><text fill="#000000" font-family="sans-serif" font-size="11" lengthAdjust="spacingAndGlyphs" text-decoration="underline" textLength="132" x="52" y="169.6824">indexOf(RoomType): int</text><ellipse cx="43" cy="178.7724" fill="#84BE84" rx="3" ry="3" style="stroke: #038048; stroke-width: 1.0;"/><text fill="#000000" font-family="sans-serif" font-size="11" lengthAdjust="spacingAndGlyphs" text-decoration="underline" textLength="156" x="52" y="181.2213">fromSize(String): RoomType</text></a><!--MD5=[631052b1b391b8c69d77805c51c8fbad]
class nitrogenhotel.db.entries.NoUser--><a href="NoUser.html" target="_top" title="NoUser.html" xlink:actuate="onRequest" xlink:href="NoUser.html" xlink:show="new" xlink:title="NoUser.html" xlink:type="simple"><rect codeLine="104" fill="#FEFECE" filter="url(#fwowtys36i46n)" height="48" id="nitrogenhotel.db.entries.NoUser" style="stroke: #A80036; stroke-width: 1.5;" width="68" x="556" y="360.5"/><ellipse cx="571" cy="376.5" fill="#ADD1B2" rx="11" ry="11" style="stroke: #A80036; stroke-width: 1.0;"/><path d="M573.9688,382.1406 Q573.3906,382.4375 572.75,382.5781 Q572.1094,382.7344 571.4063,382.7344 Q568.9063,382.7344 567.5781,381.0938 Q566.2656,379.4375 566.2656,376.3125 Q566.2656,373.1875 567.5781,371.5313 Q568.9063,369.875 571.4063,369.875 Q572.1094,369.875 572.75,370.0313 Q573.4063,370.1875 573.9688,370.4844 L573.9688,373.2031 Q573.3438,372.625 572.75,372.3594 Q572.1563,372.0781 571.5313,372.0781 Q570.1875,372.0781 569.5,373.1563 Q568.8125,374.2188 568.8125,376.3125 Q568.8125,378.4063 569.5,379.4844 Q570.1875,380.5469 571.5313,380.5469 Q572.1563,380.5469 572.75,380.2813 Q573.3438,380 573.9688,379.4219 L573.9688,382.1406 Z "/><text fill="#000000" font-family="sans-serif" font-size="12" lengthAdjust="spacingAndGlyphs" textLength="36" x="585" y="380.514">NoUser</text><line style="stroke: #A80036; stroke-width: 1.5;" x1="557" x2="623" y1="392.5" y2="392.5"/><line style="stroke: #A80036; stroke-width: 1.5;" x1="557" x2="623" y1="400.5" y2="400.5"/></a><!--MD5=[5ca5bbc446cc1a63f78057a58255dc6f]
link nitrogenhotel.db.entries.Booking to nitrogenhotel.db.entries.Reservation--><path codeLine="106" d="M1162,193.02 C1162,218.28 1162,247.01 1162,274.35 " fill="none" id="nitrogenhotel.db.entries.Booking-to-nitrogenhotel.db.entries.Reservation" style="stroke: #A80036; stroke-width: 1.0;"/><polygon fill="#A80036" points="1162,279.44,1166,270.44,1162,274.44,1158,270.44,1162,279.44" style="stroke: #A80036; stroke-width: 1.0;"/><text fill="#000000" font-family="sans-serif" font-size="13" lengthAdjust="spacingAndGlyphs" textLength="77" x="1163" y="235.167">reservation</text><!--MD5=[2a09c6bfc3332f56f7f3ec8d384ba13e]
link nitrogenhotel.db.entries.Booking to nitrogenhotel.db.entries.Customer--><path codeLine="107" d="M1061.69,193.02 C1022.07,222.65 976.07,257.06 934.15,288.41 " fill="none" id="nitrogenhotel.db.entries.Booking-to-nitrogenhotel.db.entries.Customer" style="stroke: #A80036; stroke-width: 1.0;"/><polygon fill="#A80036" points="930.11,291.43,939.7137,289.2464,934.1151,288.4368,934.9247,282.8382,930.11,291.43" style="stroke: #A80036; stroke-width: 1.0;"/><text fill="#000000" font-family="sans-serif" font-size="13" lengthAdjust="spacingAndGlyphs" textLength="56" x="1017" y="235.167">customer</text><!--MD5=[28348a48bbdc5895efaf2f705f4fcdcd]
link nitrogenhotel.db.entries.Booking to nitrogenhotel.db.entries.Room--><path codeLine="108" d="M1258.07,193.02 C1291.09,218.8 1328.73,248.2 1364.4,276.05 " fill="none" id="nitrogenhotel.db.entries.Booking-to-nitrogenhotel.db.entries.Room" style="stroke: #A80036; stroke-width: 1.0;"/><polygon fill="#A80036" points="1368.74,279.44,1364.133,270.7351,1364.8079,276.3515,1359.1915,277.0264,1368.74,279.44" style="stroke: #A80036; stroke-width: 1.0;"/><text fill="#000000" font-family="sans-serif" font-size="13" lengthAdjust="spacingAndGlyphs" textLength="28" x="1312" y="235.167">room</text><!--MD5=[5d11a6160ac2e699a75d9e637c467cd1]
reverse link nitrogenhotel.db.entries.User to nitrogenhotel.db.entries.Admin--><path codeLine="109" d="M441.83,192.81 C356.74,233.3 322.44,221.3 250,268 C215.55,290.21 182.77,323.65 160.54,348.84 " fill="none" id="nitrogenhotel.db.entries.User-backto-nitrogenhotel.db.entries.Admin" style="stroke: #A80036; stroke-width: 1.0;"/><polygon fill="none" points="438.84,186.48,459.86,183.82,445.09,199.01,438.84,186.48" style="stroke: #A80036; stroke-width: 1.0;"/><!--MD5=[e5c361c21229ea1dbccc87de02edbd62]
reverse link nitrogenhotel.db.entries.User to nitrogenhotel.db.entries.ReceptionStaff--><path codeLine="110" d="M504,204.33 C473.82,253.49 437.67,312.36 415.27,348.85 " fill="none" id="nitrogenhotel.db.entries.User-backto-nitrogenhotel.db.entries.ReceptionStaff" style="stroke: #A80036; stroke-width: 1.0;"/><polygon fill="none" points="498.17,200.45,514.6,187.06,510.1,207.77,498.17,200.45" style="stroke: #A80036; stroke-width: 1.0;"/><!--MD5=[fe3030c5d8c6f174864c85c982999b8c]
reverse link nitrogenhotel.db.entries.User to nitrogenhotel.db.entries.NoUser--><path codeLine="111" d="M568.09,207.2 C574.82,261.34 582.9,326.35 587.12,360.29 " fill="none" id="nitrogenhotel.db.entries.User-backto-nitrogenhotel.db.entries.NoUser" style="stroke: #A80036; stroke-width: 1.0;"/><polygon fill="none" points="561.1,207.77,565.58,187.06,575,206.05,561.1,207.77" style="stroke: #A80036; stroke-width: 1.0;"/><text fill="#888888" font-family="sans-serif" font-size="10" lengthAdjust="spacingAndGlyphs" textLength="180" x="737.5" y="531.59">UMLDoclet 2.0.12, PlantUML 1.2020.16</text><!--MD5=[1c0128cbb2c64e7881ee3dd615263880]
@startuml
    namespace nitrogenhotel.db.entries {

        class Customer [[Customer.html]] {
            +Customer(int)
            +Customer(int, String, String, String, String)
            +Customer(String, String, String, String)
            +getCustomerID(): int
            +getPublicID(): String
            +setPublicID(String): void
            +getCustomerName(): String
            +setCustomerName(String): void
            +getAddress(): String
            +setAddress(String): void
            +getPaymentMethod(): String
            +setPaymentMethod(String): void
        }

        class Booking [[Booking.html]] {
            +Booking(int)
            +Booking(Room)
            +Booking(Reservation, Room, Customer)
            +Booking(Reservation)
            +equalCustomerID(Booking): boolean
            +equalRoomID(Booking): boolean
            +equalStartDate(Booking): boolean
            +equalEndDate(Booking): boolean
            +equalPaid(Booking): boolean
        }

        class Admin [[Admin.html]] {
            +Admin(String, String, String)
            +Admin(String)
        }

        class Reservation [[Reservation.html]] {
            +Reservation(int)
            +Reservation(int, int, Instant, Instant, boolean)
            +Reservation(int, int, int, Instant, Instant, boolean)
            +getReservationID(): int
            +getCustomerID(): int
            +setCustomerID(int): void
            +getRoomID(): int
            +setRoomID(int): void
            +getStartDate(): Instant
            +setStartDate(Instant): void
            +getEndDate(): Instant
            +setEndDate(Instant): void
            +getPaid(): boolean
            +setPaid(boolean): void
        }

        class Room [[Room.html]] {
            +Room(int)
            +Room(String)
            +Room(int, String, int, int)
            +Room(int, String, int, int, String)
            +Room(int, int, String, int, int, String)
            +getNumber(): int
            +setNumber(int): void
            +getSize(): String
            +setSize(String): void
            +getNbBeds(): int
            +setNbBeds(int): void
            +getNote(): String
            +setNote(String): void
            +getFloor(): int
            +setFloor(int): void
            +getRoomID(): int
        }

        class User [[User.html]] {
            +User(String, String, String)
            +User(String)
            +getUserName(): String
            +setUserName(String): void
            +getScreenName(): String
            +setScreenName(String): void
            +getPassword(): String
            +setPassword(String): void
        }

        class ReceptionStaff [[ReceptionStaff.html]] {
            +ReceptionStaff(String, String, String)
            +ReceptionStaff(String)
        }

        class Floor [[Floor.html]] {
            +Floor(int)
            +getFloorNumber(): int
            +setFloorNumber(int): void
        }

        enum RoomType [[RoomType.html]] {
            {static} +SINGLE
            {static} +DOUBLE
            {static} +TRIPLE
            {static} +QUAD
            {static} +NONE
            +size: String
            {static} +indexOf(RoomType): int
            {static} +fromSize(String): RoomType
        }

        class NoUser [[NoUser.html]]

        Booking - -> Reservation: reservation
        Booking - -> Customer: customer
        Booking - -> Room: room
        User <|- - Admin
        User <|- - ReceptionStaff
        User <|- - NoUser
    }

    center footer UMLDoclet 2.0.12, PlantUML 1.2020.16
@enduml

PlantUML version 1.2020.16(Sun Aug 23 23:20:43 EEST 2020)
(APACHE source distribution)
Java Runtime: OpenJDK Runtime Environment
JVM: OpenJDK 64-Bit Server VM
Default Encoding: UTF-8
Language: en
Country: US
--></g></svg>